<svg id="visual" viewBox="0 0 1200 300" width="1200" height="300" xmlns="http://www.w3.org/2000/svg" xmlns:xlink="http://www.w3.org/1999/xlink" version="1.1"><path d="M0 163L33.3 150.7C66.7 138.3 133.3 113.7 200 106.2C266.7 98.7 333.3 108.3 400 112.3C466.7 116.3 533.3 114.7 600 113.2C666.7 111.7 733.3 110.3 800 109.5C866.7 108.7 933.3 108.3 1000 115.3C1066.7 122.3 1133.3 136.7 1166.7 143.8L1200 151L1200 301L1166.7 301C1133.3 301 1066.7 301 1000 301C933.3 301 866.7 301 800 301C733.3 301 666.7 301 600 301C533.3 301 466.7 301 400 301C333.3 301 266.7 301 200 301C133.3 301 66.7 301 33.3 301L0 301Z" fill="#4bf687" stroke-linecap="round" stroke-linejoin="miter"></path></svg>