<svg id="visual" viewBox="0 0 1200 600" width="1200" height="600" xmlns="http://www.w3.org/2000/svg" xmlns:xlink="http://www.w3.org/1999/xlink" version="1.1"><path d="M0 250L33.3 240.8C66.7 231.7 133.3 213.3 200 235.8C266.7 258.3 333.3 321.7 400 328C466.7 334.3 533.3 283.7 600 280.2C666.7 276.7 733.3 320.3 800 345.2C866.7 370 933.3 376 1000 354.5C1066.7 333 1133.3 284 1166.7 259.5L1200 235L1200 0L1166.7 0C1133.3 0 1066.7 0 1000 0C933.3 0 866.7 0 800 0C733.3 0 666.7 0 600 0C533.3 0 466.7 0 400 0C333.3 0 266.7 0 200 0C133.3 0 66.7 0 33.3 0L0 0Z" fill="#4bf687" stroke-linecap="round" stroke-linejoin="miter"></path></svg>